<svg width="200" height="56" viewBox="0 0 165 47" fill="none" xmlns="http://www.w3.org/2000/svg">
<path d="M29.3717 5.02606C30.9286 4.45938 32.6502 5.26215 33.2168 6.81908L41.4253 29.3717C41.992 30.9286 41.1892 32.6502 39.6323 33.2168L17.0797 41.4253C15.5227 41.992 13.8012 41.1892 13.2345 39.6323L5.02606 17.0797C4.45938 15.5227 5.26214 13.8012 6.81908 13.2345L29.3717 5.02606ZM21.5156 18.5272C18.9207 19.4717 17.5828 22.3409 18.5272 24.9358C19.4717 27.5307 22.3409 28.8686 24.9358 27.9242C27.5307 26.9797 28.8686 24.1105 27.9242 21.5156C26.9797 18.9207 24.1105 17.5828 21.5156 18.5272Z" fill="#1F72DE"/>
<path d="M38.4514 6.22569C40.1082 6.22569 41.4514 7.56884 41.4514 9.22569V33.2257C41.4514 34.8825 40.1082 36.2257 38.4514 36.2257H14.4514C12.7945 36.2257 11.4514 34.8825 11.4514 33.2257V9.22569C11.4514 7.56884 12.7945 6.22569 14.4514 6.22569H38.4514ZM26.4514 16.2257C23.69 16.2257 21.4514 18.4643 21.4514 21.2257C21.4514 23.9871 23.69 26.2257 26.4514 26.2257C29.2128 26.2257 31.4514 23.9871 31.4514 21.2257C31.4514 18.4643 29.2128 16.2257 26.4514 16.2257Z" fill="#8CBEFF"/>
<path d="M47.0837 13.2345C48.6406 13.8012 49.4434 15.5227 48.8767 17.0797L40.6682 39.6323C40.1015 41.1892 38.38 41.992 36.8231 41.4253L14.2705 33.2168C12.7135 32.6502 11.9108 30.9286 12.4774 29.3717L20.6859 6.81908C21.2526 5.26214 22.9741 4.45938 24.5311 5.02606L47.0837 13.2345ZM32.3872 18.5272C29.7923 17.5828 26.9231 18.9207 25.9786 21.5156C25.0342 24.1105 26.3721 26.9797 28.967 27.9242C31.5619 28.8686 34.4311 27.5307 35.3755 24.9358C36.32 22.3409 34.9821 19.4717 32.3872 18.5272Z" fill="#103B73"/>
<path d="M58.8828 23.3857H62.3828L66.7628 29.7257H62.8028L58.8828 23.3857ZM55.3828 15.7257H58.7628V29.7257H55.3828V15.7257ZM57.5028 18.5857V15.7257H60.4828C61.6828 15.7257 62.6828 15.919 63.4828 16.3057C64.2828 16.6924 64.8894 17.2324 65.3028 17.9257C65.7161 18.6057 65.9228 19.399 65.9228 20.3057C65.9228 21.199 65.7161 21.9924 65.3028 22.6857C64.8894 23.3657 64.2828 23.899 63.4828 24.2857C62.6828 24.6724 61.6828 24.8657 60.4828 24.8657H57.5028V22.2457H60.2428C60.6961 22.2457 61.0828 22.179 61.4028 22.0457C61.7361 21.899 61.9894 21.6924 62.1628 21.4257C62.3361 21.1457 62.4228 20.8124 62.4228 20.4257C62.4228 20.039 62.3361 19.7124 62.1628 19.4457C61.9894 19.1657 61.7361 18.9524 61.4028 18.8057C61.0828 18.659 60.6961 18.5857 60.2428 18.5857H57.5028ZM73.212 29.9257C72.1453 29.9257 71.2186 29.7324 70.432 29.3457C69.6586 28.9457 69.0586 28.3857 68.632 27.6657C68.2053 26.9457 67.992 26.099 67.992 25.1257C67.992 24.139 68.1986 23.2857 68.612 22.5657C69.0253 21.8457 69.6186 21.2924 70.392 20.9057C71.1786 20.519 72.1053 20.3257 73.172 20.3257C74.2386 20.3257 75.1386 20.5124 75.872 20.8857C76.6053 21.2457 77.1653 21.7724 77.552 22.4657C77.9386 23.159 78.132 23.999 78.132 24.9857C78.132 25.1324 78.132 25.279 78.132 25.4257C78.132 25.559 78.1186 25.6724 78.092 25.7657H69.692V24.0857H75.372L74.652 25.0057C74.7186 24.9124 74.772 24.799 74.812 24.6657C74.8653 24.519 74.892 24.399 74.892 24.3057C74.892 23.9057 74.8186 23.559 74.672 23.2657C74.5253 22.9724 74.3186 22.7457 74.052 22.5857C73.7853 22.4257 73.472 22.3457 73.112 22.3457C72.6586 22.3457 72.2786 22.4457 71.972 22.6457C71.6653 22.8457 71.432 23.1524 71.272 23.5657C71.1253 23.9657 71.0453 24.4724 71.032 25.0857C71.032 25.6457 71.112 26.1257 71.272 26.5257C71.432 26.9257 71.672 27.2324 71.992 27.4457C72.312 27.6457 72.7053 27.7457 73.172 27.7457C73.7053 27.7457 74.1586 27.6457 74.532 27.4457C74.9186 27.2457 75.2253 26.9457 75.452 26.5457L78.152 27.2057C77.672 28.1124 77.0186 28.7924 76.192 29.2457C75.3786 29.699 74.3853 29.9257 73.212 29.9257ZM83.0368 25.1257C83.0368 25.619 83.1435 26.0457 83.3568 26.4057C83.5702 26.7524 83.8635 27.0257 84.2368 27.2257C84.6235 27.4257 85.0368 27.5257 85.4768 27.5257C85.8502 27.5257 86.2035 27.4724 86.5368 27.3657C86.8835 27.2457 87.1968 27.0857 87.4768 26.8857C87.7702 26.6857 88.0102 26.439 88.1968 26.1457V29.0857C87.8768 29.339 87.4768 29.5457 86.9968 29.7057C86.5168 29.8524 85.9302 29.9257 85.2368 29.9257C84.2235 29.9257 83.3102 29.7257 82.4968 29.3257C81.6968 28.9257 81.0635 28.3657 80.5968 27.6457C80.1435 26.9257 79.9168 26.0857 79.9168 25.1257C79.9168 24.1524 80.1435 23.3124 80.5968 22.6057C81.0635 21.8857 81.6968 21.3257 82.4968 20.9257C83.3102 20.5257 84.2235 20.3257 85.2368 20.3257C85.9302 20.3257 86.5168 20.4057 86.9968 20.5657C87.4768 20.7124 87.8768 20.899 88.1968 21.1257V24.0857C88.0102 23.7924 87.7635 23.5457 87.4568 23.3457C87.1635 23.1457 86.8435 22.9924 86.4968 22.8857C86.1502 22.779 85.8102 22.7257 85.4768 22.7257C85.0368 22.7257 84.6235 22.8324 84.2368 23.0457C83.8635 23.259 83.5702 23.5457 83.3568 23.9057C83.1435 24.2657 83.0368 24.6724 83.0368 25.1257ZM90.3396 25.1257C90.3396 24.1524 90.5663 23.3057 91.0196 22.5857C91.473 21.8657 92.0996 21.3057 92.8996 20.9057C93.6996 20.5057 94.5996 20.3057 95.5996 20.3057C96.5996 20.3057 97.493 20.5057 98.2796 20.9057C99.0796 21.3057 99.7063 21.8657 100.16 22.5857C100.626 23.3057 100.86 24.1524 100.86 25.1257C100.86 26.0857 100.626 26.9257 100.16 27.6457C99.7063 28.3657 99.0796 28.9257 98.2796 29.3257C97.493 29.7257 96.5996 29.9257 95.5996 29.9257C94.5996 29.9257 93.6996 29.7257 92.8996 29.3257C92.0996 28.9257 91.473 28.3657 91.0196 27.6457C90.5663 26.9257 90.3396 26.0857 90.3396 25.1257ZM93.4396 25.1257C93.4396 25.6057 93.5396 26.019 93.7396 26.3657C93.9396 26.699 94.1996 26.959 94.5196 27.1457C94.8396 27.3324 95.1996 27.4257 95.5996 27.4257C95.9863 27.4257 96.3396 27.3324 96.6596 27.1457C96.993 26.959 97.253 26.699 97.4396 26.3657C97.6396 26.019 97.7396 25.6057 97.7396 25.1257C97.7396 24.6457 97.6396 24.2324 97.4396 23.8857C97.253 23.539 96.993 23.2724 96.6596 23.0857C96.3396 22.899 95.9863 22.8057 95.5996 22.8057C95.1996 22.8057 94.8396 22.899 94.5196 23.0857C94.1996 23.2724 93.9396 23.539 93.7396 23.8857C93.5396 24.2324 93.4396 24.6457 93.4396 25.1257ZM106.157 20.5257V29.7257H103.177V20.5257H106.157ZM108.817 23.6457C108.657 23.4857 108.483 23.359 108.297 23.2657C108.123 23.1724 107.903 23.1257 107.637 23.1257C107.343 23.1257 107.083 23.2057 106.857 23.3657C106.63 23.5257 106.457 23.759 106.337 24.0657C106.217 24.3724 106.157 24.7457 106.157 25.1857L105.437 24.1257C105.437 23.3924 105.577 22.739 105.857 22.1657C106.15 21.5924 106.53 21.139 106.997 20.8057C107.463 20.4724 107.95 20.3057 108.457 20.3057C108.79 20.3057 109.11 20.3724 109.417 20.5057C109.723 20.639 109.957 20.8257 110.117 21.0657L108.817 23.6457ZM118.879 14.1257H121.899V29.7257H118.879V14.1257ZM111.359 25.1257C111.359 24.0857 111.566 23.2124 111.979 22.5057C112.406 21.799 112.953 21.259 113.619 20.8857C114.286 20.5124 114.993 20.3257 115.739 20.3257C116.513 20.3257 117.193 20.519 117.779 20.9057C118.379 21.2924 118.853 21.8457 119.199 22.5657C119.546 23.2724 119.719 24.1257 119.719 25.1257C119.719 26.1124 119.546 26.9657 119.199 27.6857C118.853 28.4057 118.379 28.959 117.779 29.3457C117.193 29.7324 116.513 29.9257 115.739 29.9257C114.993 29.9257 114.286 29.739 113.619 29.3657C112.953 28.9924 112.406 28.4524 111.979 27.7457C111.566 27.0257 111.359 26.1524 111.359 25.1257ZM114.539 25.1257C114.539 25.6057 114.639 26.0257 114.839 26.3857C115.039 26.7324 115.306 27.0057 115.639 27.2057C115.973 27.3924 116.339 27.4857 116.739 27.4857C117.086 27.4857 117.419 27.3924 117.739 27.2057C118.073 27.019 118.346 26.7524 118.559 26.4057C118.773 26.0457 118.879 25.619 118.879 25.1257C118.879 24.6324 118.773 24.2124 118.559 23.8657C118.346 23.5057 118.073 23.2324 117.739 23.0457C117.419 22.859 117.086 22.7657 116.739 22.7657C116.339 22.7657 115.973 22.8657 115.639 23.0657C115.306 23.2524 115.039 23.5257 114.839 23.8857C114.639 24.2324 114.539 24.6457 114.539 25.1257ZM125.043 15.7257H128.423V29.7257H125.043V15.7257ZM127.163 18.5057V15.7257H129.903C131.09 15.7257 132.083 15.9124 132.883 16.2857C133.696 16.6457 134.31 17.1657 134.723 17.8457C135.136 18.5257 135.343 19.3457 135.343 20.3057C135.343 21.239 135.136 22.0524 134.723 22.7457C134.31 23.4257 133.696 23.9524 132.883 24.3257C132.083 24.6857 131.09 24.8657 129.903 24.8657H127.163V22.0857H129.903C130.583 22.0857 131.116 21.9324 131.503 21.6257C131.89 21.319 132.083 20.879 132.083 20.3057C132.083 19.719 131.89 19.2724 131.503 18.9657C131.116 18.659 130.583 18.5057 129.903 18.5057H127.163ZM137.524 17.0657C137.524 16.5857 137.697 16.199 138.044 15.9057C138.391 15.599 138.804 15.4457 139.284 15.4457C139.777 15.4457 140.191 15.599 140.524 15.9057C140.871 16.199 141.044 16.5857 141.044 17.0657C141.044 17.5457 140.871 17.939 140.524 18.2457C140.191 18.5524 139.777 18.7057 139.284 18.7057C138.804 18.7057 138.391 18.5524 138.044 18.2457C137.697 17.939 137.524 17.5457 137.524 17.0657ZM137.824 20.5257H140.744V29.7257H137.824V20.5257ZM143.731 14.1257H146.771V29.7257H143.731V14.1257ZM154.302 29.9257C153.235 29.9257 152.308 29.7324 151.522 29.3457C150.748 28.9457 150.148 28.3857 149.722 27.6657C149.295 26.9457 149.082 26.099 149.082 25.1257C149.082 24.139 149.288 23.2857 149.702 22.5657C150.115 21.8457 150.708 21.2924 151.482 20.9057C152.268 20.519 153.195 20.3257 154.262 20.3257C155.328 20.3257 156.228 20.5124 156.962 20.8857C157.695 21.2457 158.255 21.7724 158.642 22.4657C159.028 23.159 159.222 23.999 159.222 24.9857C159.222 25.1324 159.222 25.279 159.222 25.4257C159.222 25.559 159.208 25.6724 159.182 25.7657H150.782V24.0857H156.462L155.742 25.0057C155.808 24.9124 155.862 24.799 155.902 24.6657C155.955 24.519 155.982 24.399 155.982 24.3057C155.982 23.9057 155.908 23.559 155.762 23.2657C155.615 22.9724 155.408 22.7457 155.142 22.5857C154.875 22.4257 154.562 22.3457 154.202 22.3457C153.748 22.3457 153.368 22.4457 153.062 22.6457C152.755 22.8457 152.522 23.1524 152.362 23.5657C152.215 23.9657 152.135 24.4724 152.122 25.0857C152.122 25.6457 152.202 26.1257 152.362 26.5257C152.522 26.9257 152.762 27.2324 153.082 27.4457C153.402 27.6457 153.795 27.7457 154.262 27.7457C154.795 27.7457 155.248 27.6457 155.622 27.4457C156.008 27.2457 156.315 26.9457 156.542 26.5457L159.242 27.2057C158.762 28.1124 158.108 28.7924 157.282 29.2457C156.468 29.699 155.475 29.9257 154.302 29.9257Z" fill="#103B73"/>
</svg>
