<svg width="100" height="100" viewBox="0 0 100 100" fill="none" xmlns="http://www.w3.org/2000/svg">
<g clip-path="url(#clip0_28_108)">
<path d="M97 0C98.6569 0 100 1.34315 100 3V97C100 98.6569 98.6569 100 97 100H3C1.34315 100 0 98.6569 0 97V3C0 1.34315 1.34315 0 3 0H97ZM50 25C36.1929 25 25 36.1929 25 50C25 63.8071 36.1929 75 50 75C63.8071 75 75 63.8071 75 50C75 36.1929 63.8071 25 50 25Z" fill="#103b73"/>
<rect y="1" width="100" height="1" fill="#808080"/>
<path d="M47.8068 52.6392V52.3977C47.8116 51.5691 47.8849 50.9086 48.027 50.4162C48.1738 49.9238 48.3868 49.526 48.6662 49.223C48.9455 48.92 49.2817 48.6454 49.6747 48.3991C49.9683 48.2098 50.2311 48.0133 50.4631 47.8097C50.6951 47.6061 50.8797 47.3812 51.017 47.1349C51.1544 46.884 51.223 46.6046 51.223 46.2969C51.223 45.9702 51.1449 45.6837 50.9886 45.4375C50.8324 45.1913 50.6217 45.0019 50.3565 44.8693C50.0961 44.7367 49.8073 44.6705 49.4901 44.6705C49.1823 44.6705 48.8911 44.7391 48.6165 44.8764C48.3419 45.009 48.117 45.2079 47.9418 45.473C47.7666 45.7334 47.6719 46.0578 47.6577 46.446H44.7599C44.7836 45.4991 45.0109 44.7178 45.4418 44.1023C45.8726 43.482 46.4432 43.0204 47.1534 42.7173C47.8636 42.4096 48.6473 42.2557 49.5043 42.2557C50.4465 42.2557 51.2798 42.4119 52.0043 42.7244C52.7287 43.0322 53.2969 43.4796 53.7088 44.0668C54.1207 44.6539 54.3267 45.3617 54.3267 46.1903C54.3267 46.7443 54.2344 47.2367 54.0497 47.6676C53.8698 48.0937 53.6165 48.4725 53.2898 48.804C52.9631 49.1307 52.5772 49.4266 52.1321 49.6918C51.758 49.9143 51.4503 50.1463 51.2088 50.3878C50.9721 50.6293 50.7945 50.9086 50.6761 51.2259C50.5625 51.5431 50.5033 51.9337 50.4986 52.3977V52.6392H47.8068ZM49.2131 57.1847C48.7396 57.1847 48.3348 57.0189 47.9986 56.6875C47.6671 56.3513 47.5038 55.9489 47.5085 55.4801C47.5038 55.0161 47.6671 54.6184 47.9986 54.2869C48.3348 53.9555 48.7396 53.7898 49.2131 53.7898C49.6629 53.7898 50.0582 53.9555 50.3991 54.2869C50.7401 54.6184 50.9129 55.0161 50.9176 55.4801C50.9129 55.7926 50.83 56.0791 50.669 56.3395C50.5128 56.5952 50.3068 56.8011 50.0511 56.9574C49.7955 57.1089 49.5161 57.1847 49.2131 57.1847Z" fill="#103b73"/>
</g>
<defs>
<clipPath id="clip0_28_108">
<rect width="100" height="100" rx="3" fill="#103b73"/>
</clipPath>
</defs>
</svg>
